<svg xmlns="http://www.w3.org/2000/svg" xmlns:xlink="http://www.w3.org/1999/xlink" preserveAspectRatio="xMidYMid" width="40" height="37.969" viewBox="0 0 40 37.969">
  <defs>
    <style>
      .cls-1 {
        fill: #fff;
        fill-rule: evenodd;
      }
    </style>
  </defs>
  <path d="M39.434,34.702 C40.190,35.449 40.190,36.662 39.434,37.410 C38.678,38.157 37.452,38.157 36.695,37.410 L25.839,26.674 C23.095,29.122 19.472,30.625 15.484,30.625 C6.933,30.625 -0.000,23.770 -0.000,15.313 C-0.000,6.856 6.933,-0.000 15.484,-0.000 C24.036,-0.000 30.969,6.856 30.969,15.313 C30.969,18.452 30.010,21.368 28.371,23.798 C28.405,23.827 28.448,23.837 28.480,23.869 L39.434,34.702 ZM15.500,3.843 C9.080,3.843 3.875,8.985 3.875,15.328 C3.875,21.671 9.080,26.812 15.500,26.812 C21.920,26.812 27.125,21.671 27.125,15.328 C27.125,8.985 21.920,3.843 15.500,3.843 Z" class="cls-1"/>
</svg>
