<svg xmlns="http://www.w3.org/2000/svg" xmlns:xlink="http://www.w3.org/1999/xlink" preserveAspectRatio="xMidYMid" width="42" height="32" viewBox="0 0 42 32">
  <defs>
    <style>
      .cls-1 {
        fill: #fff;
        fill-rule: evenodd;
      }
    </style>
  </defs>
  <path d="M40.000,18.000 L2.000,18.000 C0.895,18.000 -0.000,17.105 -0.000,16.000 C-0.000,14.896 0.895,14.000 2.000,14.000 L40.000,14.000 C41.105,14.000 42.000,14.896 42.000,16.000 C42.000,17.105 41.105,18.000 40.000,18.000 ZM40.000,4.000 L2.000,4.000 C0.895,4.000 -0.000,3.105 -0.000,2.000 C-0.000,0.896 0.895,0.000 2.000,0.000 L40.000,0.000 C41.105,0.000 42.000,0.896 42.000,2.000 C42.000,3.105 41.105,4.000 40.000,4.000 ZM2.000,28.000 L40.000,28.000 C41.105,28.000 42.000,28.895 42.000,30.000 C42.000,31.105 41.105,32.000 40.000,32.000 L2.000,32.000 C0.895,32.000 -0.000,31.105 -0.000,30.000 C-0.000,28.895 0.895,28.000 2.000,28.000 Z" class="cls-1"/>
</svg>
