<svg xmlns="http://www.w3.org/2000/svg" xmlns:xlink="http://www.w3.org/1999/xlink" preserveAspectRatio="xMidYMid" width="21.562" height="35.969" viewBox="0 0 21.562 35.969">
  <defs>
    <style>
      .cls-1 {
        fill: #d9cabb;
        fill-rule: evenodd;
      }
    </style>
  </defs>
  <path d="M10.782,18.196 C15.792,18.196 19.853,14.122 19.853,9.096 C19.853,4.069 15.792,-0.006 10.782,-0.006 C5.773,-0.006 1.711,4.069 1.711,9.096 C1.711,14.122 5.773,18.196 10.782,18.196 ZM10.782,4.618 C13.247,4.618 15.245,6.622 15.245,9.096 C15.245,11.568 13.247,13.573 10.782,13.573 C8.318,13.573 6.320,11.568 6.320,9.096 C6.320,6.622 8.318,4.618 10.782,4.618 ZM21.239,19.307 C20.726,18.275 19.308,17.416 17.423,18.906 C14.875,20.921 10.782,20.921 10.782,20.921 C10.782,20.921 6.690,20.921 4.142,18.906 C2.257,17.416 0.838,18.275 0.326,19.307 C-0.567,21.106 0.442,21.976 2.719,23.442 C4.663,24.695 7.335,25.163 9.060,25.338 L7.620,26.783 C5.591,28.818 3.633,30.782 2.275,32.145 C1.462,32.960 1.462,34.282 2.275,35.096 L2.520,35.343 C3.332,36.158 4.649,36.158 5.461,35.343 L10.806,29.980 C12.835,32.015 14.793,33.979 16.152,35.343 C16.964,36.158 18.281,36.158 19.093,35.343 L19.338,35.096 C20.151,34.281 20.150,32.960 19.338,32.145 L13.993,26.782 L12.548,25.333 C14.275,25.154 16.918,24.684 18.846,23.442 C21.122,21.976 22.131,21.106 21.239,19.307 Z" class="cls-1"/>
</svg>
