<svg xmlns="http://www.w3.org/2000/svg" xmlns:xlink="http://www.w3.org/1999/xlink" preserveAspectRatio="xMidYMid" width="32" height="18.781" viewBox="0 0 32 18.781">
  <defs>
    <style>
      .cls-1 {
        fill: #d9cabb;
        fill-rule: evenodd;
      }
    </style>
  </defs>
  <path d="M15.650,18.759 L17.562,18.759 C17.562,18.759 18.140,18.693 18.435,18.365 C18.707,18.064 18.698,17.499 18.698,17.499 C18.698,17.499 18.661,14.824 19.852,14.435 C21.026,14.050 22.534,16.992 24.132,18.123 C25.341,18.978 26.259,18.758 26.259,18.758 L30.533,18.762 C30.533,18.762 32.768,18.588 31.708,16.775 C31.621,16.627 31.091,15.435 28.530,12.985 C25.851,10.420 26.210,10.835 29.438,6.400 C31.403,3.698 32.189,2.048 31.944,1.342 C31.710,0.670 30.274,0.785 30.274,0.785 L25.452,0.784 C25.452,0.784 25.095,0.748 24.831,0.911 C24.572,1.070 24.406,1.484 24.406,1.484 C24.406,1.484 23.644,3.614 22.629,5.392 C20.486,9.142 19.630,9.341 19.279,9.108 C18.464,8.565 18.668,6.927 18.668,5.763 C18.668,2.128 19.203,0.612 17.627,0.220 C17.104,0.090 16.719,0.004 15.381,-0.010 C13.664,-0.028 12.211,-0.005 11.388,0.410 C10.841,0.688 10.418,1.303 10.676,1.338 C10.994,1.382 11.714,1.539 12.096,2.075 C12.589,2.766 12.572,4.319 12.572,4.319 C12.572,4.319 12.855,8.599 11.910,9.131 C11.261,9.495 10.372,8.750 8.462,5.347 C7.483,3.604 6.744,1.641 6.744,1.641 C6.744,1.641 6.602,1.280 6.347,1.088 C6.039,0.855 5.608,0.780 5.608,0.780 L1.036,0.782 C1.036,0.782 0.350,0.802 0.097,1.110 C-0.127,1.383 0.080,1.949 0.080,1.949 C0.080,1.949 3.659,10.650 7.712,15.001 C11.429,18.992 15.650,18.759 15.650,18.759 Z" class="cls-1"/>
</svg>
