<svg xmlns="http://www.w3.org/2000/svg" xmlns:xlink="http://www.w3.org/1999/xlink" preserveAspectRatio="xMidYMid" width="35.626" height="34.188" viewBox="0 0 35.626 34.188">
  <defs>
    <style>
      .cls-1 {
        fill: #d9cabb;
        fill-rule: evenodd;
      }
    </style>
  </defs>
  <path d="M17.189,7.091 C19.911,7.091 22.469,8.303 24.349,10.186 L24.349,10.199 C24.349,9.289 24.963,8.605 25.801,8.605 L26.017,8.605 C27.332,8.605 27.611,9.856 27.611,10.253 L27.617,24.329 C27.522,25.249 28.567,25.720 29.149,25.130 C31.405,22.802 34.099,13.192 27.743,7.615 C21.809,2.425 13.851,3.282 9.627,6.201 C5.123,9.306 2.238,16.176 5.045,22.632 C8.084,29.672 16.815,31.773 21.993,29.677 C24.617,28.616 25.831,32.170 23.104,33.334 C18.987,35.083 7.521,34.907 2.163,25.623 C-1.454,19.356 -1.260,8.325 8.335,2.605 C15.681,-1.772 25.360,-0.552 31.190,5.545 C37.299,11.925 36.941,23.864 30.993,28.514 C28.295,30.620 24.279,28.565 24.318,25.493 L24.279,24.488 C22.410,26.351 19.911,27.441 17.189,27.441 C11.812,27.441 7.072,22.700 7.072,17.326 C7.072,11.887 11.812,7.091 17.189,7.091 L17.189,7.091 ZM23.960,16.934 C23.755,12.990 20.828,10.622 17.305,10.622 L17.169,10.622 C13.091,10.622 10.833,13.833 10.833,17.471 C10.833,21.547 13.566,24.124 17.145,24.124 C21.145,24.124 23.777,21.195 23.960,17.732 L23.960,16.934 L23.960,16.934 Z" class="cls-1"/>
</svg>
