<svg xmlns="http://www.w3.org/2000/svg" xmlns:xlink="http://www.w3.org/1999/xlink" preserveAspectRatio="xMidYMid" width="249" height="48" viewBox="0 0 249 48">
  <defs>
    <style>
      .cls-1 {
        fill: #8e9498;
        fill-rule: evenodd;
      }
    </style>
  </defs>
  <path d="M247.542,26.962 C246.692,31.866 246.479,34.792 246.444,36.106 L243.467,36.106 C243.062,36.106 242.675,35.927 242.403,35.621 C242.131,35.308 242.002,34.892 242.050,34.476 C242.150,33.533 242.290,32.571 242.468,31.792 L242.396,31.792 C241.045,34.389 239.342,36.546 236.536,36.546 C233.872,36.546 232.062,34.352 232.062,30.694 C232.062,23.050 236.536,17.820 242.962,17.820 C246.053,17.820 248.183,18.480 249.000,18.846 L247.542,26.962 ZM242.254,21.403 C239.413,21.403 236.856,24.877 236.856,29.888 C236.856,31.573 237.350,32.447 238.452,32.447 C240.334,32.447 242.606,29.232 243.780,22.574 L243.922,21.625 C243.566,21.512 242.927,21.403 242.254,21.403 ZM225.991,29.086 C227.058,31.463 227.730,32.558 228.655,32.558 L229.047,32.558 L228.406,36.104 L226.596,36.104 C224.359,36.104 223.719,35.045 222.478,32.268 C221.378,29.888 220.774,28.756 219.743,28.756 L219.213,28.756 L218.162,34.785 C218.029,35.548 217.386,36.104 216.630,36.104 L213.281,36.104 L216.372,18.296 L219.694,18.296 C220.031,18.296 220.351,18.453 220.566,18.719 C220.784,18.989 220.871,19.339 220.812,19.681 L219.778,25.504 L220.738,25.504 L226.066,19.179 C226.537,18.620 227.223,18.296 227.941,18.296 L232.097,18.296 L224.501,26.856 C224.999,27.365 225.496,28.024 225.991,29.086 ZM209.234,36.104 L204.759,36.104 C205.044,33.547 205.684,29.525 206.218,26.816 L206.146,26.816 C204.866,29.049 202.879,31.133 199.788,31.133 C197.342,31.133 195.954,29.486 195.954,26.526 C195.954,25.867 196.026,25.134 196.168,24.333 L197.234,18.296 L199.535,18.296 C200.105,18.296 200.645,18.552 201.010,18.996 C201.379,19.443 201.537,20.035 201.447,20.611 L200.891,24.112 C200.535,26.084 200.926,26.925 202.063,26.925 C204.227,26.925 206.503,23.928 207.210,19.395 L207.388,18.296 L211.968,18.296 L210.442,26.962 C209.593,31.866 209.308,34.792 209.234,36.104 ZM183.671,36.543 C179.197,36.543 176.748,33.178 176.748,29.120 C176.748,22.940 180.936,17.820 186.548,17.820 C190.915,17.820 193.400,21.004 193.400,25.244 C193.400,31.679 189.424,36.543 183.671,36.543 ZM186.156,21.479 C183.244,21.479 181.434,25.721 181.434,29.010 C181.434,31.350 182.323,32.884 184.097,32.884 C187.152,32.884 188.785,28.570 188.785,25.318 C188.785,22.868 187.932,21.479 186.156,21.479 ZM164.712,36.543 C163.436,36.543 162.653,36.396 162.297,36.287 L161.273,42.056 C161.065,43.227 160.076,44.076 158.922,44.076 L156.333,44.076 L160.914,18.296 L163.131,18.296 C163.687,18.296 164.219,18.557 164.569,19.003 C164.919,19.448 165.055,20.038 164.938,20.600 C164.808,21.216 164.666,21.816 164.498,22.461 L164.569,22.461 C165.992,19.941 167.589,17.820 170.609,17.820 C173.340,17.820 175.046,20.197 175.046,23.853 C175.046,31.532 170.712,36.543 164.712,36.543 ZM168.691,21.952 C166.665,21.952 164.427,25.281 163.115,31.826 L162.937,32.814 C163.221,32.884 163.719,33.035 164.712,33.035 C167.766,33.035 170.253,29.851 170.253,24.622 C170.253,23.014 169.790,21.952 168.691,21.952 ZM157.570,13.735 C157.423,14.448 157.053,14.382 156.613,14.328 L155.113,14.058 C154.609,13.982 154.483,13.722 154.597,13.260 L155.144,11.283 C155.308,10.571 155.786,10.699 156.100,10.729 L157.500,10.986 C158.053,11.079 158.234,11.215 158.101,11.808 L157.570,13.735 ZM152.971,12.983 C152.813,13.719 152.431,13.642 151.976,13.589 L150.291,13.359 C149.768,13.263 149.638,13.003 149.754,12.513 L150.326,10.456 C150.501,9.724 150.996,9.844 151.319,9.877 L152.897,10.093 C153.475,10.193 153.659,10.339 153.523,10.969 L152.971,12.983 ZM156.902,22.431 C156.902,26.779 152.076,28.793 146.322,29.448 C146.428,31.496 147.140,32.704 149.056,32.704 C150.867,32.704 152.360,31.789 153.459,30.837 L155.269,33.983 C153.886,35.154 151.720,36.543 148.309,36.543 C143.943,36.543 141.670,33.616 141.670,29.412 C141.670,22.758 146.074,17.820 151.614,17.820 C154.917,17.820 156.902,19.505 156.902,22.431 ZM150.832,21.512 C148.665,21.512 147.176,23.820 146.571,26.413 C150.085,26.050 152.464,24.842 152.464,22.978 C152.464,21.992 151.933,21.512 150.832,21.512 ZM148.035,11.395 L147.737,12.337 C147.637,12.673 147.307,12.835 146.936,12.784 C146.936,12.784 117.866,9.278 99.489,10.063 C97.481,10.153 96.204,10.270 94.232,10.406 C92.965,10.709 92.716,11.924 92.716,11.924 L92.707,11.924 L88.763,35.274 C88.624,36.059 88.165,36.106 87.822,36.116 L83.726,36.116 C83.422,36.120 83.003,36.150 83.154,35.321 L87.351,10.943 C85.621,11.089 82.795,11.275 81.160,11.445 L81.141,11.448 C79.864,11.748 79.615,12.957 79.604,12.989 L75.810,35.417 C75.736,36.064 75.399,36.116 75.141,36.116 L71.223,36.116 C70.515,36.116 70.515,35.660 70.615,35.257 L74.646,12.233 C68.598,13.010 64.031,13.809 60.733,14.557 C60.620,14.584 60.498,14.548 60.413,14.461 C60.326,14.377 60.288,14.258 60.310,14.135 L60.750,11.728 C60.811,11.395 61.054,11.129 61.370,11.046 C65.444,9.940 80.692,6.252 98.836,5.776 C118.125,5.273 144.656,8.818 148.261,9.311 C148.362,9.327 148.453,9.388 148.507,9.474 C148.562,9.568 148.574,9.678 148.542,9.777 L148.041,11.385 L148.035,11.395 ZM23.353,48.005 C20.793,48.005 18.331,47.581 16.026,46.799 C15.907,46.758 15.834,46.636 15.853,46.508 C15.872,46.382 15.978,46.288 16.102,46.286 C25.701,46.154 36.449,40.840 37.278,30.797 C37.644,26.370 34.643,17.068 20.279,21.052 C20.193,21.075 20.103,21.052 20.039,20.991 C19.974,20.929 19.944,20.840 19.961,20.750 C20.136,19.768 20.461,17.361 20.552,16.697 C20.566,16.593 20.518,16.490 20.431,16.435 C17.791,14.790 15.368,13.219 14.525,12.669 C14.453,12.622 14.365,12.615 14.287,12.649 C14.209,12.683 14.153,12.755 14.137,12.840 L14.137,12.840 L11.215,28.111 C11.196,28.208 11.233,28.309 11.310,28.369 L11.336,28.391 C11.357,28.408 11.380,28.421 11.405,28.432 C11.475,28.458 11.553,28.453 11.620,28.415 C20.238,23.456 26.076,26.713 26.829,30.376 C27.710,34.667 22.354,41.646 9.859,38.840 C9.730,38.811 9.601,38.889 9.561,39.019 L8.608,42.144 C8.582,42.228 8.518,42.293 8.435,42.317 C8.352,42.343 8.264,42.322 8.198,42.265 C3.180,37.862 -0.000,31.313 -0.000,23.999 C-0.000,10.742 10.455,-0.006 23.353,-0.006 C24.046,-0.006 24.732,0.026 25.411,0.088 C25.530,0.099 25.626,0.193 25.642,0.316 C25.657,0.439 25.587,0.556 25.474,0.598 C21.677,1.990 17.863,4.309 13.277,7.860 C13.213,7.910 13.175,7.988 13.175,8.070 C13.174,8.152 13.212,8.229 13.275,8.280 C16.295,10.656 19.901,13.874 26.347,13.874 C29.763,13.874 33.085,12.871 35.951,10.974 C37.431,9.995 38.744,8.804 39.862,7.436 C39.908,7.379 39.977,7.345 40.049,7.343 C40.122,7.340 40.192,7.370 40.242,7.424 C44.246,11.733 46.705,17.570 46.705,23.999 C46.705,37.258 36.250,48.005 23.353,48.005 ZM17.340,8.067 C17.341,8.067 17.342,8.065 17.344,8.064 C24.116,2.787 32.334,0.733 40.217,1.684 C40.215,1.686 40.212,1.687 40.209,1.688 C40.212,1.687 40.215,1.686 40.218,1.684 C40.222,1.685 40.226,1.686 40.230,1.686 C36.444,11.040 25.104,14.108 17.340,8.067 ZM94.417,32.558 C95.195,32.558 96.050,31.532 97.255,29.958 C97.931,29.120 98.571,28.390 99.140,28.167 L99.140,28.133 C97.682,27.951 96.227,26.596 96.227,24.475 C96.227,20.454 99.495,18.296 104.393,18.296 L111.003,18.296 C111.126,18.296 111.238,18.351 111.320,18.447 C111.397,18.543 111.430,18.669 111.408,18.793 L108.466,35.757 C108.429,35.957 108.259,36.104 108.062,36.104 L104.244,36.104 C104.120,36.104 104.008,36.050 103.930,35.950 C103.852,35.857 103.817,35.731 103.840,35.607 L104.926,29.302 L104.179,29.302 C103.151,29.302 102.511,30.035 100.808,32.335 C98.606,35.191 97.789,36.104 95.551,36.104 L94.142,36.104 C94.026,36.104 93.909,36.053 93.834,35.957 C93.754,35.867 93.719,35.744 93.738,35.621 L94.131,32.811 C94.153,32.664 94.271,32.558 94.417,32.558 ZM103.077,26.050 L105.492,26.050 L106.238,21.845 L104.001,21.845 C101.943,21.845 100.879,22.724 100.879,24.475 C100.879,25.537 101.586,26.050 103.077,26.050 ZM119.308,18.296 C119.614,18.296 119.905,18.437 120.103,18.676 C120.300,18.917 120.384,19.235 120.333,19.545 C120.174,20.493 119.954,21.602 119.767,22.355 L119.835,22.355 C120.973,20.307 122.714,17.820 125.908,17.820 C128.608,17.820 129.567,19.685 129.567,22.135 L129.636,22.135 C131.094,19.794 132.868,17.820 135.817,17.820 C138.195,17.820 139.579,19.319 139.579,22.355 C139.579,23.087 139.508,23.889 139.330,24.805 L137.377,36.104 L133.912,36.104 C133.643,36.104 133.391,35.980 133.221,35.771 C133.049,35.557 132.978,35.277 133.027,35.009 L134.785,25.061 C135.105,23.197 134.928,21.988 133.650,21.988 C131.733,21.988 129.390,24.805 127.718,34.641 L127.469,36.104 L124.143,36.104 C123.824,36.104 123.522,35.957 123.319,35.707 C123.116,35.454 123.032,35.122 123.089,34.802 L124.845,25.061 C125.162,23.303 125.019,21.988 123.672,21.988 C121.826,21.988 119.481,24.732 117.778,34.641 L117.530,36.104 L114.100,36.104 C113.815,36.104 113.544,35.974 113.363,35.750 C113.179,35.521 113.101,35.225 113.153,34.938 L116.072,18.296 L119.308,18.296 Z" class="cls-1"/>
</svg>
