<?xml version="1.0" standalone="no"?>
<!DOCTYPE svg PUBLIC "-//W3C//DTD SVG 20010904//EN"
 "http://www.w3.org/TR/2001/REC-SVG-20010904/DTD/svg10.dtd">
<svg version="1.0" xmlns="http://www.w3.org/2000/svg"
 width="306.000000pt" height="306.000000pt" viewBox="0 0 306.000000 306.000000"
 preserveAspectRatio="xMidYMid meet">
<metadata>
Created by potrace 1.11, written by Peter Selinger 2001-2013
</metadata>
<g transform="translate(0.000000,306.000000) scale(0.100000,-0.100000)"
fill="#000000" stroke="none">
<path d="M1346 2819 c-209 -31 -428 -122 -596 -248 -70 -52 -197 -177 -250
-246 -317 -411 -358 -990 -103 -1433 27 -45 68 -109 92 -142 52 -72 188 -210
205 -210 7 0 23 33 35 72 42 129 28 117 113 100 109 -22 373 -22 463 2 179 46
329 154 391 281 24 50 29 72 29 135 0 64 -4 82 -28 123 -37 63 -112 120 -194
148 -56 19 -88 23 -178 23 -127 -1 -231 -28 -374 -95 -47 -22 -88 -36 -91 -32
-4 5 28 186 71 403 92 464 86 440 101 440 6 0 84 -46 174 -101 187 -115 174
-94 149 -248 -9 -52 -14 -96 -11 -98 2 -3 48 5 103 17 140 31 316 37 423 16
122 -25 202 -66 281 -145 169 -170 203 -417 89 -667 -101 -223 -332 -409 -631
-508 -130 -43 -223 -62 -378 -78 -76 -7 -120 -15 -118 -22 4 -12 56 -29 167
-54 109 -24 394 -23 510 2 518 113 905 501 1017 1019 25 115 25 399 0 514 -36
168 -102 327 -192 463 -46 69 -131 173 -147 178 -5 2 -43 -29 -86 -70 -131
-124 -280 -208 -448 -250 -125 -32 -361 -31 -479 1 -139 37 -333 144 -460 254
l-39 34 100 70 c192 138 414 264 557 318 26 10 46 23 44 29 -5 14 -228 17
-311 5z"/>
<path d="M2063 2739 c-268 -31 -550 -134 -771 -280 -63 -42 -77 -56 -64 -61
15 -6 14 -7 -3 -8 -28 -1 69 -61 159 -99 306 -127 665 -54 902 183 73 73 174
219 174 252 0 23 -241 31 -397 13z"/>
</g>
</svg>
